<?xml version="1.0" standalone="no"?>
<!DOCTYPE svg PUBLIC "-//W3C//DTD SVG 20010904//EN"
 "http://www.w3.org/TR/2001/REC-SVG-20010904/DTD/svg10.dtd">
<svg version="1.0" xmlns="http://www.w3.org/2000/svg"
 width="254.000000pt" height="514.000000pt" viewBox="0 0 254.000000 514.000000"
 preserveAspectRatio="xMidYMid meet">

<g transform="translate(0.000000,514.000000) scale(0.100000,-0.100000)"
fill="#000000" stroke="none">
<path d="M1171 5026 c-33 -52 -61 -99 -61 -105 0 -6 -5 -11 -12 -11 -6 0 -8
-3 -5 -6 4 -4 -7 -34 -24 -68 -32 -62 -38 -77 -58 -131 -15 -43 -22 -80 -29
-160 l-7 -70 -55 -12 c-130 -29 -125 -26 -122 -58 2 -15 10 -35 18 -42 8 -8
12 -19 9 -24 -4 -5 -2 -9 3 -9 5 0 15 -12 23 -27 19 -38 105 -120 154 -148 22
-13 60 -29 84 -36 23 -7 45 -19 48 -27 3 -7 -12 -32 -34 -55 -22 -23 -71 -82
-108 -132 -36 -49 -72 -97 -79 -105 -7 -9 -15 -22 -19 -30 -4 -8 -16 -28 -26
-45 -31 -49 -121 -234 -163 -335 -40 -97 -55 -140 -78 -220 -7 -25 -16 -57
-20 -71 -4 -14 -14 -67 -21 -118 -9 -62 -17 -91 -26 -91 -7 0 -13 3 -14 8 -3
29 -9 46 -21 53 -7 5 -10 9 -5 9 4 0 0 11 -9 25 -17 26 -17 25 6 170 6 39 8
90 6 113 -12 92 -72 181 -165 245 -25 17 -48 33 -51 36 -3 3 -21 14 -40 24
-19 9 -64 33 -99 52 l-65 34 -15 -22 c-13 -18 -16 -55 -16 -202 0 -188 8 -240
48 -297 10 -16 15 -28 11 -28 -13 0 82 -82 126 -108 53 -32 58 -33 133 -39 55
-5 58 -7 76 -41 10 -21 26 -59 36 -87 9 -27 21 -59 25 -70 23 -56 30 -95 30
-164 0 -60 25 -229 44 -296 2 -5 6 -23 10 -40 8 -30 21 -71 36 -110 22 -60
105 -218 142 -273 24 -35 48 -71 53 -79 6 -9 29 -37 53 -64 24 -26 43 -50 43
-53 -1 -9 97 -106 107 -106 13 0 62 -54 62 -69 0 -8 -6 -11 -17 -7 -10 4 -60
10 -113 13 -84 5 -98 9 -120 31 -88 87 -226 152 -326 152 -69 0 -162 -31 -201
-67 -16 -15 -36 -46 -43 -68 -16 -53 -70 -155 -81 -155 -5 0 -9 -6 -9 -13 0
-16 -36 -60 -125 -155 -67 -70 -69 -74 -51 -88 14 -10 51 -14 133 -14 62 0
116 -1 121 -2 80 -19 134 -30 162 -34 19 -2 47 -9 62 -14 15 -5 58 -7 95 -6
54 2 79 9 123 34 96 54 160 140 160 215 0 23 3 53 7 65 5 21 10 23 47 19 68
-7 100 -19 191 -70 57 -31 194 -172 234 -240 34 -58 77 -168 85 -218 2 -15 7
-32 11 -38 12 -21 6 -251 -10 -317 -17 -72 -54 -159 -83 -189 -10 -11 -21 -28
-25 -37 -3 -10 -11 -18 -17 -18 -5 0 -10 -5 -10 -10 0 -25 -123 -111 -182
-127 -43 -12 -203 -15 -238 -4 -61 18 -124 65 -147 110 -26 49 -31 137 -10
173 16 29 45 58 56 58 5 0 11 5 13 10 2 6 28 14 59 17 43 4 59 2 71 -11 9 -9
21 -16 27 -16 16 0 42 -44 46 -79 5 -40 22 -71 40 -71 21 0 75 59 75 83 0 48
-35 115 -80 151 -74 60 -70 58 -148 64 -78 6 -159 -27 -216 -88 -61 -65 -76
-106 -76 -203 0 -85 13 -139 42 -171 10 -11 18 -23 18 -27 0 -9 98 -81 130
-95 68 -30 91 -36 172 -41 52 -4 112 -1 150 7 61 11 189 66 196 82 2 4 7 8 11
8 12 0 141 129 141 140 0 6 4 10 9 10 5 0 18 17 28 37 11 21 31 61 46 89 15
28 29 60 31 71 3 11 9 38 15 59 7 22 14 91 17 154 9 160 -14 302 -67 425 -35
82 -64 138 -99 190 -22 33 -43 67 -47 75 -4 8 -17 26 -30 40 -13 14 -23 28
-23 32 0 4 -16 24 -35 45 -19 21 -35 41 -35 45 0 4 -25 33 -55 65 -30 32 -54
62 -54 66 0 4 -25 33 -56 63 -119 118 -214 268 -259 409 -60 186 -59 319 4
535 12 41 27 81 32 88 6 6 8 12 4 12 -6 0 33 80 43 90 4 3 12 17 20 31 20 41
101 129 117 129 8 0 14 4 14 10 0 5 19 20 43 32 114 60 284 -4 220 -83 -23
-30 -43 -80 -43 -110 0 -44 45 -123 110 -192 30 -32 59 -67 64 -78 5 -10 12
-19 16 -19 4 0 25 -25 45 -55 21 -30 42 -55 46 -55 10 0 45 50 53 78 4 12 12
22 18 22 6 0 8 3 5 7 -4 3 2 20 12 37 10 17 22 47 26 66 4 19 11 40 15 45 14
19 20 136 9 188 -9 39 -22 62 -53 93 -42 43 -70 53 -150 58 -37 2 -54 10 -95
47 -65 58 -81 71 -81 64 0 -3 -13 1 -30 10 -47 24 -139 19 -212 -12 -35 -15
-78 -38 -96 -51 -30 -23 -112 -101 -112 -107 0 -5 -67 -108 -79 -122 -6 -6
-13 -23 -17 -37 -3 -14 -10 -26 -15 -26 -5 0 -8 -3 -7 -7 3 -15 -14 -63 -22
-63 -4 0 -13 -22 -20 -50 -20 -85 -32 -59 -25 58 9 162 13 192 41 322 3 14 7
36 10 50 7 35 24 87 47 145 10 27 20 54 22 60 3 16 15 47 35 90 10 22 22 50
25 62 3 13 12 29 19 35 6 7 22 36 35 63 13 28 26 52 30 55 3 3 15 22 25 43 11
20 23 37 28 37 4 0 8 7 8 15 0 8 3 15 8 15 4 0 13 13 20 29 7 16 28 44 47 62
19 19 35 38 35 43 0 10 108 116 119 116 5 0 11 -24 14 -52 6 -61 39 -140 73
-177 13 -14 24 -29 24 -32 0 -4 36 -45 79 -90 l79 -84 18 38 c10 20 21 37 26
37 4 0 8 8 8 18 0 9 9 28 19 42 17 21 23 23 43 13 67 -32 271 -46 344 -24 16
5 54 14 84 21 30 7 83 22 118 33 l64 20 -7 33 c-6 37 -70 182 -99 229 -11 17
-30 47 -43 67 -12 21 -23 41 -23 45 0 5 -9 14 -20 21 -11 7 -20 19 -20 27 0 8
-4 15 -10 15 -5 0 -10 8 -10 17 0 9 3 14 6 10 18 -18 234 152 234 183 0 6 3
10 8 10 4 0 13 14 20 30 8 17 19 36 26 43 6 6 21 30 32 52 11 22 44 87 73 145
72 144 78 158 110 258 l10 33 -39 -6 c-22 -3 -57 -7 -77 -10 -21 -2 -58 -7
-83 -11 -25 -3 -139 -8 -255 -11 -236 -4 -317 -17 -395 -63 -27 -16 -50 -28
-50 -25 0 2 -17 -12 -37 -30 -21 -19 -45 -35 -54 -35 -8 0 -25 20 -37 44 -12
24 -29 49 -37 56 -8 7 -15 18 -15 25 0 7 -7 15 -15 19 -8 3 -15 10 -15 15 0 5
-28 36 -62 68 -34 32 -69 65 -79 75 -42 40 -53 34 -118 -66z m134 -421 c22
-107 28 -286 11 -357 -7 -32 -11 -58 -9 -58 7 0 161 118 230 176 97 83 225
164 391 247 191 97 236 109 62 17 -216 -114 -369 -223 -585 -416 l-69 -62 80
-6 c113 -9 244 -41 332 -81 82 -38 176 -95 168 -102 -2 -2 -23 8 -47 23 -94
59 -280 118 -404 128 -33 3 -91 1 -130 -3 -96 -11 -101 -5 -68 84 40 110 43
279 8 495 -10 63 13 -2 30 -85z m-947 -1442 c45 -67 82 -127 82 -133 0 -5 -7
-10 -15 -10 -17 0 -66 72 -125 184 -39 72 -65 143 -38 102 7 -11 50 -75 96
-143z m487 -1703 c0 -11 -21 -18 -85 -27 -94 -12 -179 -39 -248 -78 -62 -35
-64 -24 -3 14 68 41 163 80 236 96 72 17 100 15 100 -5z"/>
</g>
</svg>
